<svg width="47" height="48" viewBox="0 0 47 48" fill="none" xmlns="http://www.w3.org/2000/svg">
<g id="foundation:social-github" filter="url(#filter0_d_3_54)">
<path id="Vector" fill-rule="evenodd" clip-rule="evenodd" d="M23.3061 6.61386C14.9899 6.61386 8.2475 13.3566 8.2475 21.674C8.2475 28.3276 12.5614 33.9722 18.5462 35.9623C19.2999 36.1017 19.5741 35.638 19.5741 35.2376C19.5741 34.8808 19.561 33.9343 19.5544 32.6763C15.3652 33.5872 14.4813 30.6572 14.4813 30.6572C13.7963 28.9176 12.809 28.455 12.809 28.455C11.4416 27.5213 12.9128 27.5395 12.9128 27.5395C14.4242 27.6465 15.2196 29.091 15.2196 29.091C16.5626 31.3924 18.7447 30.7263 19.6023 30.3432C19.7386 29.3682 20.1286 28.706 20.5584 28.3288C17.2148 27.9488 13.6994 26.6568 13.6994 20.8863C13.6994 19.2418 14.2859 17.8972 15.249 16.8442C15.0949 16.465 14.5771 14.934 15.3969 12.8597C15.3969 12.8597 16.6611 12.455 19.5386 14.4046C20.7391 14.069 22.0276 13.9015 23.3085 13.8964C24.5873 13.9018 25.8763 14.069 27.0783 14.4046C29.9539 12.455 31.2162 12.8597 31.2162 12.8597C32.0379 14.934 31.5205 16.465 31.366 16.8442C32.3314 17.8972 32.9137 19.2418 32.9137 20.8863C32.9137 26.6703 29.3932 27.9445 26.0385 28.316C26.5783 28.7813 27.0602 29.7023 27.0602 31.1074C27.0602 33.1196 27.042 34.7433 27.042 35.2372C27.042 35.6407 27.3127 36.1098 28.0773 35.9604C34.0555 33.966 38.3663 28.3257 38.3663 21.674C38.3663 13.3566 31.6239 6.61386 23.3061 6.61386Z" fill="#FF5C00"/>
</g>
<defs>
<filter id="filter0_d_3_54" x="-3" y="-4" width="54.6139" height="54.6139" filterUnits="userSpaceOnUse" color-interpolation-filters="sRGB">
<feFlood flood-opacity="0" result="BackgroundImageFix"/>
<feColorMatrix in="SourceAlpha" type="matrix" values="0 0 0 0 0 0 0 0 0 0 0 0 0 0 0 0 0 0 127 0" result="hardAlpha"/>
<feOffset dy="4"/>
<feGaussianBlur stdDeviation="4"/>
<feComposite in2="hardAlpha" operator="out"/>
<feColorMatrix type="matrix" values="0 0 0 0 1 0 0 0 0 0.36 0 0 0 0 0 0 0 0 0.35 0"/>
<feBlend mode="normal" in2="BackgroundImageFix" result="effect1_dropShadow_3_54"/>
<feBlend mode="normal" in="SourceGraphic" in2="effect1_dropShadow_3_54" result="shape"/>
</filter>
</defs>
</svg>
