<svg width="45" height="48" viewBox="0 0 45 48" fill="none" xmlns="http://www.w3.org/2000/svg">
<g id="foundation:social-behance" filter="url(#filter0_d_3_46)">
<g id="Group">
<path id="Vector" d="M27.8162 23.8927C26.5501 23.8927 26.1323 24.8558 26.0052 25.3029H29.3855C29.3538 25.0546 29.2546 24.6183 28.9387 24.3001C28.6696 24.0302 28.2931 23.8927 27.8162 23.8927Z" fill="#FF5C00"/>
<path id="Vector_2" d="M19.127 25.6914H15.9251V28.4202H18.9521C19.4919 28.4067 20.1607 28.2329 20.1607 27.0989C20.1607 25.7308 19.2328 25.6914 19.127 25.6914Z" fill="#FF5C00"/>
<path id="Vector_3" d="M33.5581 7.61389H11.1621C10.5837 7.61404 10.0206 7.79961 9.55544 8.14334C9.09029 8.48708 8.74758 8.97089 8.57764 9.52373V33.5057C8.71993 33.9681 8.98357 34.384 9.34112 34.7099C9.69867 35.0359 10.1371 35.2601 10.6107 35.3591H34.1091C34.5691 35.2626 34.9959 35.048 35.3477 34.7364C35.6995 34.4248 35.9641 34.027 36.1155 33.5821V9.44728C35.9341 8.9129 35.5899 8.44874 35.1312 8.11993C34.6725 7.79113 34.1224 7.61417 33.5581 7.61389ZM25.153 19.3429C25.153 19.2359 25.2403 19.149 25.3469 19.149H30.1601C30.2659 19.149 30.3535 19.2359 30.3535 19.3429V20.7797C30.3533 20.8309 30.3329 20.88 30.2967 20.9162C30.2604 20.9525 30.2113 20.9729 30.1601 20.9731H25.3469C25.2955 20.9731 25.2463 20.9528 25.2099 20.9165C25.1736 20.8802 25.1531 20.831 25.153 20.7797V19.3429ZM23.1088 27.3124C23.1088 29.1465 22.1384 30.0312 21.3229 30.4478C20.4344 30.9031 19.5135 30.9386 19.2517 30.9386H13.1418C13.0904 30.9382 13.0413 30.9176 13.005 30.8812C12.9688 30.8449 12.9483 30.7957 12.948 30.7444V19.0811C12.948 18.9741 13.036 18.8868 13.1418 18.8868H19.2123C21.3669 18.8868 22.7057 20.151 22.7057 22.1872C22.7057 23.4483 22.0913 24.0534 21.5507 24.3414C21.8512 24.4459 22.1217 24.622 22.3388 24.8546C23.186 25.7504 23.1134 27.2487 23.1088 27.3124ZM32.1074 27.1367C32.1015 27.1834 32.0788 27.2264 32.0434 27.2574C32.0081 27.2885 31.9626 27.3056 31.9155 27.3054H26.072C26.1141 27.946 26.3678 28.4082 26.8262 28.6812C27.2316 28.9218 27.6799 28.9481 27.8521 28.9481C27.888 28.9481 27.9104 28.9465 27.9131 28.9457C28.5839 28.9457 29.06 28.7978 29.3407 28.5059C29.6098 28.2256 29.6025 27.9086 29.6006 27.8951C29.6006 27.8418 29.6183 27.7904 29.6562 27.7518C29.6742 27.7328 29.6959 27.7178 29.7199 27.7075C29.7439 27.6972 29.7698 27.6919 29.796 27.6919H31.8475C31.9549 27.6919 32.0421 27.7788 32.0421 27.8862C32.0421 31.0259 28.6893 31.185 28.0151 31.185C27.9074 31.185 27.846 31.1811 27.846 31.1811H27.844C26.3304 31.1811 25.1461 30.7397 24.3336 29.8702C23.0605 28.5055 23.1768 26.5965 23.1826 26.5162C23.1826 26.4818 23.188 25.3504 23.7598 24.2024C24.297 23.1316 25.4403 21.8543 27.8575 21.8543C29.2426 21.8543 30.3211 22.2798 31.0575 23.1185C32.4124 24.6635 32.1228 27.0363 32.1074 27.1367Z" fill="#FF5C00"/>
<path id="Vector_4" d="M19.7556 22.3099C19.7556 21.3025 19.1513 21.2909 19.1262 21.2909H15.9251V23.505H18.9146C19.359 23.505 19.7556 23.4139 19.7556 22.3099Z" fill="#FF5C00"/>
</g>
</g>
<defs>
<filter id="filter0_d_3_46" x="-3.96033" y="-4" width="54.6139" height="54.6139" filterUnits="userSpaceOnUse" color-interpolation-filters="sRGB">
<feFlood flood-opacity="0" result="BackgroundImageFix"/>
<feColorMatrix in="SourceAlpha" type="matrix" values="0 0 0 0 0 0 0 0 0 0 0 0 0 0 0 0 0 0 127 0" result="hardAlpha"/>
<feOffset dy="4"/>
<feGaussianBlur stdDeviation="4"/>
<feComposite in2="hardAlpha" operator="out"/>
<feColorMatrix type="matrix" values="0 0 0 0 1 0 0 0 0 0.36 0 0 0 0 0 0 0 0 0.35 0"/>
<feBlend mode="normal" in2="BackgroundImageFix" result="effect1_dropShadow_3_46"/>
<feBlend mode="normal" in="SourceGraphic" in2="effect1_dropShadow_3_46" result="shape"/>
</filter>
</defs>
</svg>
