<svg width="45" height="48" viewBox="0 0 45 48" fill="none" xmlns="http://www.w3.org/2000/svg">
<g id="foundation:social-linkedin" filter="url(#filter0_d_3_44)">
<path id="Vector" d="M34.1684 7.61386H10.478C9.34512 7.61386 8.42572 8.51163 8.42572 9.61715V33.4099C8.42572 34.5169 9.34512 35.4158 10.478 35.4158H34.1684C35.3021 35.4158 36.2277 34.5169 36.2277 33.4099V9.61715C36.2277 8.51163 35.3021 7.61386 34.1684 7.61386ZM16.6713 31.305H12.5458V18.0377H16.6713V31.305ZM14.6086 16.2236C14.2946 16.2236 13.9836 16.1617 13.6935 16.0415C13.4034 15.9213 13.1399 15.7451 12.9179 15.523C12.6959 15.3009 12.5199 15.0372 12.3999 14.747C12.2798 14.4568 12.2182 14.1459 12.2184 13.8319C12.2184 13.198 12.4702 12.5901 12.9184 12.1419C13.3666 11.6937 13.9745 11.4418 14.6084 11.4418C15.2422 11.4418 15.8502 11.6937 16.2984 12.1419C16.7466 12.5901 16.9984 13.198 16.9984 13.8319C16.9984 14.4658 16.7467 15.0739 16.2985 15.5224C15.8504 15.9709 15.2426 16.2231 14.6086 16.2236ZM32.1153 31.305H27.9964V24.8534C27.9964 23.3143 27.9663 21.3353 25.8529 21.3353C23.7068 21.3353 23.3797 23.0115 23.3797 24.7418V31.3054H19.2577V18.0377H23.2137V19.8494H23.2701C23.8207 18.8069 25.166 17.7068 27.1724 17.7068C31.345 17.7068 32.1157 20.4537 32.1157 24.0275V31.305H32.1153Z" fill="#FF5C00"/>
</g>
<defs>
<filter id="filter0_d_3_44" x="-3.98022" y="-4" width="54.6139" height="54.6139" filterUnits="userSpaceOnUse" color-interpolation-filters="sRGB">
<feFlood flood-opacity="0" result="BackgroundImageFix"/>
<feColorMatrix in="SourceAlpha" type="matrix" values="0 0 0 0 0 0 0 0 0 0 0 0 0 0 0 0 0 0 127 0" result="hardAlpha"/>
<feOffset dy="4"/>
<feGaussianBlur stdDeviation="4"/>
<feComposite in2="hardAlpha" operator="out"/>
<feColorMatrix type="matrix" values="0 0 0 0 1 0 0 0 0 0.36 0 0 0 0 0 0 0 0 0.35 0"/>
<feBlend mode="normal" in2="BackgroundImageFix" result="effect1_dropShadow_3_44"/>
<feBlend mode="normal" in="SourceGraphic" in2="effect1_dropShadow_3_44" result="shape"/>
</filter>
</defs>
</svg>
