<svg width="45" height="48" viewBox="0 0 45 48" fill="none" xmlns="http://www.w3.org/2000/svg">
<g id="foundation:social-dribbble" filter="url(#filter0_d_3_52)">
<path id="Vector" fill-rule="evenodd" clip-rule="evenodd" d="M22.3664 8C14.6517 8 8.375 14.2767 8.375 21.991C8.375 29.706 14.6517 35.9823 22.3664 35.9823C30.081 35.9823 36.3577 29.7064 36.3577 21.9914C36.3577 14.2767 30.0814 8 22.3664 8ZM31.6171 14.452C33.3406 16.5525 34.293 19.1798 34.3158 21.8967C33.9216 21.8126 29.9706 21.0121 25.9941 21.5118C25.6713 20.7174 25.321 19.9345 24.9438 19.1644C29.3624 17.3596 31.3653 14.7933 31.6171 14.452ZM22.3664 10.0585C25.4029 10.0585 28.1781 11.1976 30.2888 13.0696C30.0737 13.3762 28.2747 15.7942 24.0252 17.387C22.0671 13.789 19.8962 10.8331 19.5661 10.3906C20.4831 10.1698 21.4231 10.0583 22.3664 10.0585ZM17.2859 11.1945C17.6006 11.6262 19.7364 14.586 21.7165 18.1056C16.1263 19.5903 11.2027 19.5683 10.6683 19.5618C11.4429 15.8537 13.942 12.7715 17.2859 11.1945ZM10.4154 22.0091C10.4154 21.8871 10.4177 21.7655 10.4215 21.6442C10.9444 21.655 16.7361 21.7295 22.7038 19.9437C23.0458 20.6105 23.3689 21.2869 23.6727 21.972C23.5147 22.0164 23.3576 22.0636 23.2016 22.1141C17.038 24.1062 13.7582 29.5373 13.4875 30.0006C11.5792 27.8815 10.4154 25.0789 10.4154 22.0091ZM22.3664 33.9609C19.7078 33.9636 17.1251 33.0754 15.0305 31.4382C15.246 30.9984 17.6659 26.3234 24.4063 23.9749L24.4855 23.9483C26.1633 28.3082 26.8568 31.9626 27.0348 33.0117C25.5584 33.6392 23.9705 33.9621 22.3664 33.9609ZM29.0435 31.9167C28.9214 31.1896 28.2855 27.6911 26.722 23.3957C30.4668 22.7964 33.7571 23.7776 34.166 23.9062C33.6335 27.232 31.7248 30.1037 29.0435 31.9167Z" fill="#FF5C00"/>
</g>
<defs>
<filter id="filter0_d_3_52" x="-3.94055" y="-4" width="54.6139" height="54.6139" filterUnits="userSpaceOnUse" color-interpolation-filters="sRGB">
<feFlood flood-opacity="0" result="BackgroundImageFix"/>
<feColorMatrix in="SourceAlpha" type="matrix" values="0 0 0 0 0 0 0 0 0 0 0 0 0 0 0 0 0 0 127 0" result="hardAlpha"/>
<feOffset dy="4"/>
<feGaussianBlur stdDeviation="4"/>
<feComposite in2="hardAlpha" operator="out"/>
<feColorMatrix type="matrix" values="0 0 0 0 1 0 0 0 0 0.36 0 0 0 0 0 0 0 0 0.35 0"/>
<feBlend mode="normal" in2="BackgroundImageFix" result="effect1_dropShadow_3_52"/>
<feBlend mode="normal" in="SourceGraphic" in2="effect1_dropShadow_3_52" result="shape"/>
</filter>
</defs>
</svg>
